<svg width="1200" height="1600" viewBox="0 0 1200 1600" fill="none" xmlns="http://www.w3.org/2000/svg">
  <rect width="1200" height="1600" fill="#0B0B0B"/>
  <rect width="1200" height="1048" fill="url(#wall)"/>
  <rect y="1048" width="1200" height="552" fill="url(#floor)"/>
  <rect x="72" y="84" width="1056" height="920" rx="40" fill="#1A1A1A"/>
  <g clip-path="url(#windowClip)">
    <rect x="106" y="118" width="988" height="876" rx="30" fill="url(#sky)"/>
    <circle cx="874" cy="214" r="82" fill="#CFCFCF" opacity="0.24"/>
    <circle cx="874" cy="214" r="44" fill="#F4F4F4" opacity="0.42"/>
    <g>
      <circle cx="192" cy="190" r="3" fill="#F2F2F2" opacity="0.28">
        <animate attributeName="opacity" values="0.18;0.82;0.22" dur="3.8s" begin="0s" repeatCount="indefinite"/>
      </circle>
      <circle cx="264" cy="260" r="2.5" fill="#F2F2F2" opacity="0.22">
        <animate attributeName="opacity" values="0.14;0.72;0.2" dur="2.9s" begin="0.4s" repeatCount="indefinite"/>
      </circle>
      <circle cx="338" cy="208" r="3.5" fill="#F7F7F7" opacity="0.24">
        <animate attributeName="opacity" values="0.12;0.78;0.18" dur="4.5s" begin="1.2s" repeatCount="indefinite"/>
      </circle>
      <circle cx="430" cy="292" r="2.5" fill="#F2F2F2" opacity="0.2">
        <animate attributeName="opacity" values="0.1;0.7;0.18" dur="3.2s" begin="0.8s" repeatCount="indefinite"/>
      </circle>
      <circle cx="514" cy="176" r="3" fill="#F7F7F7" opacity="0.24">
        <animate attributeName="opacity" values="0.16;0.8;0.24" dur="4.1s" begin="1.7s" repeatCount="indefinite"/>
      </circle>
      <circle cx="612" cy="250" r="2.5" fill="#F2F2F2" opacity="0.2">
        <animate attributeName="opacity" values="0.1;0.74;0.16" dur="3.6s" begin="0.2s" repeatCount="indefinite"/>
      </circle>
      <circle cx="716" cy="184" r="3.5" fill="#F7F7F7" opacity="0.28">
        <animate attributeName="opacity" values="0.18;0.84;0.2" dur="4.4s" begin="1.1s" repeatCount="indefinite"/>
      </circle>
      <circle cx="806" cy="302" r="2.5" fill="#F2F2F2" opacity="0.18">
        <animate attributeName="opacity" values="0.08;0.7;0.14" dur="3.1s" begin="0.6s" repeatCount="indefinite"/>
      </circle>
      <circle cx="930" cy="170" r="3" fill="#F7F7F7" opacity="0.24">
        <animate attributeName="opacity" values="0.16;0.82;0.2" dur="3.7s" begin="1.5s" repeatCount="indefinite"/>
      </circle>
      <circle cx="994" cy="266" r="2.5" fill="#F2F2F2" opacity="0.18">
        <animate attributeName="opacity" values="0.1;0.66;0.16" dur="3.3s" begin="0.9s" repeatCount="indefinite"/>
      </circle>
      <circle cx="154" cy="334" r="2.5" fill="#F7F7F7" opacity="0.18">
        <animate attributeName="opacity" values="0.08;0.64;0.14" dur="2.8s" begin="0.5s" repeatCount="indefinite"/>
      </circle>
      <circle cx="560" cy="332" r="3" fill="#F2F2F2" opacity="0.18">
        <animate attributeName="opacity" values="0.1;0.76;0.16" dur="4s" begin="1.9s" repeatCount="indefinite"/>
      </circle>
      <circle cx="1040" cy="346" r="2.5" fill="#F7F7F7" opacity="0.18">
        <animate attributeName="opacity" values="0.08;0.68;0.12" dur="3.4s" begin="1.3s" repeatCount="indefinite"/>
      </circle>
    </g>
    <rect x="116" y="566" width="156" height="428" rx="12" fill="#2B2B2B"/>
    <rect x="176" y="430" width="102" height="564" rx="12" fill="#232323"/>
    <rect x="254" y="318" width="138" height="676" rx="12" fill="#171717"/>
    <rect x="352" y="472" width="82" height="522" rx="12" fill="#303030"/>
    <rect x="416" y="240" width="170" height="754" rx="12" fill="#202020"/>
    <rect x="554" y="390" width="108" height="604" rx="12" fill="#383838"/>
    <rect x="650" y="154" width="198" height="840" rx="12" fill="#121212"/>
    <rect x="812" y="412" width="118" height="582" rx="12" fill="#2A2A2A"/>
    <rect x="902" y="270" width="154" height="724" rx="12" fill="#1F1F1F"/>
    <rect x="1014" y="454" width="76" height="540" rx="12" fill="#343434"/>
    <g fill="#ECECEC" opacity="0.88">
      <rect x="154" y="616" width="18" height="18" rx="4"/>
      <rect x="154" y="654" width="18" height="18" rx="4"/>
      <rect x="154" y="730" width="18" height="18" rx="4" opacity="0.16">
        <animate attributeName="opacity" values="0.12;0.92;0.18;0.86;0.12" dur="4.4s" begin="0.3s" repeatCount="indefinite"/>
      </rect>
      <rect x="154" y="806" width="18" height="18" rx="4"/>
      <rect x="196" y="576" width="18" height="18" rx="4"/>
      <rect x="196" y="614" width="18" height="18" rx="4"/>
      <rect x="196" y="654" width="18" height="18" rx="4"/>
      <rect x="196" y="730" width="18" height="18" rx="4"/>
      <rect x="292" y="382" width="18" height="18" rx="4"/>
      <rect x="292" y="420" width="18" height="18" rx="4"/>
      <rect x="292" y="496" width="18" height="18" rx="4"/>
      <rect x="292" y="534" width="18" height="18" rx="4"/>
      <rect x="292" y="648" width="18" height="18" rx="4" opacity="0.22">
        <animate attributeName="opacity" values="0.18;0.88;0.24;0.9;0.18" dur="3.6s" begin="1.1s" repeatCount="indefinite"/>
      </rect>
      <rect x="292" y="724" width="18" height="18" rx="4"/>
      <rect x="334" y="458" width="18" height="18" rx="4"/>
      <rect x="334" y="534" width="18" height="18" rx="4"/>
      <rect x="334" y="610" width="18" height="18" rx="4"/>
      <rect x="334" y="686" width="18" height="18" rx="4"/>
      <rect x="450" y="296" width="20" height="20" rx="4"/>
      <rect x="450" y="336" width="20" height="20" rx="4"/>
      <rect x="450" y="376" width="20" height="20" rx="4"/>
      <rect x="450" y="456" width="20" height="20" rx="4"/>
      <rect x="450" y="496" width="20" height="20" rx="4"/>
      <rect x="450" y="576" width="20" height="20" rx="4" opacity="0.18">
        <animate attributeName="opacity" values="0.14;0.94;0.2;0.84;0.14" dur="5.2s" begin="0.8s" repeatCount="indefinite"/>
      </rect>
      <rect x="450" y="696" width="20" height="20" rx="4"/>
      <rect x="492" y="336" width="20" height="20" rx="4"/>
      <rect x="492" y="456" width="20" height="20" rx="4"/>
      <rect x="492" y="536" width="20" height="20" rx="4"/>
      <rect x="492" y="616" width="20" height="20" rx="4"/>
      <rect x="492" y="696" width="20" height="20" rx="4"/>
      <rect x="690" y="206" width="22" height="22" rx="5"/>
      <rect x="690" y="250" width="22" height="22" rx="5"/>
      <rect x="690" y="338" width="22" height="22" rx="5"/>
      <rect x="690" y="426" width="22" height="22" rx="5"/>
      <rect x="690" y="514" width="22" height="22" rx="5" opacity="0.2">
        <animate attributeName="opacity" values="0.16;0.9;0.22;0.82;0.16" dur="4.8s" begin="1.7s" repeatCount="indefinite"/>
      </rect>
      <rect x="690" y="646" width="22" height="22" rx="5"/>
      <rect x="690" y="734" width="22" height="22" rx="5"/>
      <rect x="734" y="294" width="22" height="22" rx="5"/>
      <rect x="734" y="382" width="22" height="22" rx="5"/>
      <rect x="734" y="470" width="22" height="22" rx="5"/>
      <rect x="734" y="558" width="22" height="22" rx="5"/>
      <rect x="734" y="646" width="22" height="22" rx="5" opacity="0.14">
        <animate attributeName="opacity" values="0.1;0.86;0.18;0.92;0.1" dur="3.9s" begin="0.5s" repeatCount="indefinite"/>
      </rect>
      <rect x="778" y="250" width="22" height="22" rx="5"/>
      <rect x="778" y="338" width="22" height="22" rx="5"/>
      <rect x="778" y="426" width="22" height="22" rx="5"/>
      <rect x="778" y="558" width="22" height="22" rx="5"/>
      <rect x="778" y="646" width="22" height="22" rx="5"/>
      <rect x="778" y="734" width="22" height="22" rx="5"/>
      <rect x="842" y="460" width="18" height="18" rx="4"/>
      <rect x="842" y="536" width="18" height="18" rx="4"/>
      <rect x="842" y="612" width="18" height="18" rx="4" opacity="0.2">
        <animate attributeName="opacity" values="0.14;0.88;0.2;0.82;0.14" dur="4.1s" begin="1.4s" repeatCount="indefinite"/>
      </rect>
      <rect x="842" y="688" width="18" height="18" rx="4"/>
      <rect x="944" y="312" width="18" height="18" rx="4"/>
      <rect x="944" y="388" width="18" height="18" rx="4"/>
      <rect x="944" y="464" width="18" height="18" rx="4"/>
      <rect x="944" y="540" width="18" height="18" rx="4"/>
      <rect x="944" y="616" width="18" height="18" rx="4"/>
      <rect x="944" y="692" width="18" height="18" rx="4" opacity="0.16">
        <animate attributeName="opacity" values="0.1;0.84;0.18;0.9;0.1" dur="5.6s" begin="0.9s" repeatCount="indefinite"/>
      </rect>
      <rect x="986" y="350" width="18" height="18" rx="4"/>
      <rect x="986" y="466" width="18" height="18" rx="4"/>
      <rect x="986" y="542" width="18" height="18" rx="4"/>
      <rect x="986" y="618" width="18" height="18" rx="4"/>
      <rect x="986" y="694" width="18" height="18" rx="4"/>
      <rect x="1034" y="428" width="18" height="18" rx="4"/>
      <rect x="1034" y="504" width="18" height="18" rx="4"/>
      <rect x="1034" y="580" width="18" height="18" rx="4" opacity="0.18">
        <animate attributeName="opacity" values="0.12;0.92;0.24;0.8;0.12" dur="3.4s" begin="1.9s" repeatCount="indefinite"/>
      </rect>
      <rect x="1034" y="656" width="18" height="18" rx="4"/>
    </g>
    <rect x="106" y="914" width="988" height="80" fill="url(#ledge)"/>
  </g>
  <rect x="350" y="118" width="24" height="876" fill="#4A4A4A"/>
  <rect x="594" y="118" width="24" height="876" fill="#4A4A4A"/>
  <rect x="838" y="118" width="24" height="876" fill="#4A4A4A"/>
  <rect x="96" y="1082" width="1008" height="42" fill="#161616"/>
  <rect x="112" y="1136" width="972" height="38" fill="#E0E0E0" opacity="0.12"/>
  <ellipse cx="408" cy="1160" rx="332" ry="118" fill="#090909" opacity="0.42"/>
  <ellipse cx="408" cy="1138" rx="312" ry="104" fill="#202020" opacity="0.34"/>
  <rect x="116" y="890" width="594" height="314" rx="92" fill="#888888"/>
  <rect x="148" y="926" width="530" height="166" rx="64" fill="#EEEEEE"/>
  <rect x="176" y="1110" width="472" height="56" rx="28" fill="#D4D4D4"/>
  <rect x="182" y="858" width="170" height="94" rx="30" fill="#FBFBFB"/>
  <rect x="336" y="846" width="150" height="86" rx="28" fill="#E8E8E8"/>
  <path d="M150 1014C206 986 274 970 352 970C462 970 560 1002 636 1076V1136H150V1014Z" fill="url(#blanket)"/>
  <path d="M176 1118C260 1096 374 1084 504 1090C566 1093 618 1104 648 1114V1156H176V1118Z" fill="#F0F0F0" opacity="0.12"/>
  <ellipse cx="948" cy="1150" rx="154" ry="44" fill="#050505" opacity="0.38"/>
  <g>
    <rect x="854" y="808" width="70" height="118" rx="10" fill="#A9D7A9" transform="rotate(-8 854 808)"/>
    <rect x="874" y="828" width="30" height="6" rx="3" fill="#4A7C4A" transform="rotate(-8 874 828)"/>
    <rect x="868" y="858" width="42" height="24" rx="6" fill="#78B678" transform="rotate(-8 868 858)"/>
    <rect x="904" y="792" width="76" height="126" rx="10" fill="#B7E1B0" transform="rotate(6 904 792)"/>
    <rect x="928" y="816" width="28" height="6" rx="3" fill="#4E834E" transform="rotate(6 928 816)"/>
    <rect x="922" y="850" width="40" height="22" rx="6" fill="#86C07C" transform="rotate(6 922 850)"/>
    <rect x="952" y="806" width="72" height="120" rx="10" fill="#9FD29A" transform="rotate(14 952 806)"/>
    <rect x="972" y="828" width="28" height="6" rx="3" fill="#477847" transform="rotate(14 972 828)"/>
    <rect x="968" y="860" width="38" height="22" rx="6" fill="#72AF6D" transform="rotate(14 968 860)"/>
    <rect x="804" y="918" width="262" height="196" rx="48" fill="#2E2E2E"/>
    <rect x="826" y="940" width="218" height="154" rx="38" fill="#474747"/>
    <path d="M832 942C868 900 918 876 976 876C1019 876 1059 894 1082 924L1040 960C1025 936 1003 924 974 924C935 924 901 942 876 972L832 942Z" fill="#585858"/>
    <rect x="842" y="966" width="186" height="12" rx="6" fill="#D9D9D9"/>
    <rect x="848" y="972" width="174" height="6" rx="3" fill="#1B1B1B" opacity="0.72"/>
    <path d="M876 918C876 878.235 908.235 846 948 846H960C999.765 846 1032 878.235 1032 918V932H1004V920C1004 894.595 983.405 874 958 874H950C924.595 874 904 894.595 904 920V932H876V918Z" fill="#BEBEBE"/>
    <rect x="836" y="998" width="58" height="16" rx="8" fill="#5C5C5C"/>
    <rect x="976" y="998" width="42" height="16" rx="8" fill="#5C5C5C"/>
  </g>
  <defs>
    <linearGradient id="wall" x1="600" y1="0" x2="600" y2="1048" gradientUnits="userSpaceOnUse">
      <stop stop-color="#141414"/>
      <stop offset="1" stop-color="#3A3A3A"/>
    </linearGradient>
    <linearGradient id="floor" x1="600" y1="1048" x2="600" y2="1600" gradientUnits="userSpaceOnUse">
      <stop stop-color="#2A2A2A"/>
      <stop offset="1" stop-color="#0B0B0B"/>
    </linearGradient>
    <linearGradient id="sky" x1="600" y1="118" x2="600" y2="994" gradientUnits="userSpaceOnUse">
      <stop stop-color="#050505"/>
      <stop offset="0.46" stop-color="#171717"/>
      <stop offset="0.82" stop-color="#363636"/>
      <stop offset="1" stop-color="#5C5C5C"/>
    </linearGradient>
    <linearGradient id="ledge" x1="600" y1="914" x2="600" y2="994" gradientUnits="userSpaceOnUse">
      <stop stop-color="#3A3A3A"/>
      <stop offset="1" stop-color="#1C1C1C"/>
    </linearGradient>
    <linearGradient id="blanket" x1="150" y1="970" x2="636" y2="1136" gradientUnits="userSpaceOnUse">
      <stop stop-color="#C8C8C8"/>
      <stop offset="1" stop-color="#6E6E6E"/>
    </linearGradient>
    <clipPath id="windowClip">
      <rect x="106" y="118" width="988" height="876" rx="30" fill="white"/>
    </clipPath>
  </defs>
</svg>
